<?xml version="1.0" encoding="iso-8859-1"?>
<!-- Generator: Adobe Illustrator 26.1.0, SVG Export Plug-In . SVG Version: 6.00 Build 0)  -->
<svg version="1.1" id="Tone" xmlns="http://www.w3.org/2000/svg" xmlns:xlink="http://www.w3.org/1999/xlink" x="0px" y="0px"
	 viewBox="0 0 50 50" style="enable-background:new 0 0 50 50;" xml:space="preserve">
<g id="Line">
</g>
<g>
	<path d="M12,32H6v-6h6V32z M8,30h2v-2H8V30z"/>
</g>
<g>
	<path d="M25.915,42.799c-0.062,0-0.122,0-0.183-0.001c-3.63-0.047-8.894-1.332-13.358-7.191c-0.283-0.373-0.271-0.892,0.03-1.25
		s0.809-0.458,1.227-0.244c0.08,0.043,8.123,4.15,13.008,1.113c2.701-1.676,4.018-5.311,3.914-10.803
		c-0.01-0.514,0.373-0.952,0.884-1.012c0.129-0.012,2.63-0.272,5.312,1.854c-0.423-1.154-1.352-2.518-3.329-3.672
		c-3.146-1.836-7.083-1.928-10.27-0.244c-1.497,0.792-2.947,1.897-4.31,3.288c-0.495,0.506-1.188,0.784-1.894,0.77
		c-0.697-0.018-1.361-0.328-1.822-0.851c-0.768-0.871-0.846-2.147-0.19-3.104l0.502-0.733c-1.37-1.512-2.631-4.458-0.368-8.078
		c3.107-4.973,10.857-6.997,16.508-4.399c2.882-1.168,8.438-1.75,11.562,3.526c0.152,0.258,0.182,0.57,0.079,0.852
		c-0.102,0.281-0.324,0.502-0.606,0.602l-3.039,1.072c1.527,2.152,4.438,7.1,3.851,12.892c-0.464,4.565-3,8.636-7.539,12.097
		C32.9,41.554,29.367,42.799,25.915,42.799z M16.939,37.527c2.579,2.131,5.531,3.229,8.818,3.271
		c0.053,0.001,0.105,0.001,0.157,0.001c3.018,0,6.119-1.101,8.754-3.108c4.076-3.109,6.351-6.707,6.761-10.694
		c0.693-6.746-4.198-12.475-4.248-12.531c-0.217-0.25-0.296-0.592-0.212-0.911c0.085-0.32,0.322-0.578,0.634-0.688l3.104-1.096
		c-3.288-3.993-8.492-1.634-8.729-1.523c-0.279,0.13-0.605,0.125-0.881-0.016c-4.732-2.423-11.702-0.74-14.334,3.47
		c-2.295,3.673,0.29,5.846,0.592,6.081c0.417,0.325,0.515,0.922,0.216,1.357l-0.986,1.441c-0.138,0.201-0.121,0.47,0.04,0.653
		c0.129,0.146,0.29,0.172,0.374,0.174c0.088,0.011,0.263-0.017,0.413-0.17c1.508-1.538,3.124-2.769,4.803-3.656
		c3.796-2.007,8.475-1.897,12.213,0.285c5.628,3.283,4.595,8.149,4.549,8.355c-0.087,0.38-0.386,0.675-0.767,0.756
		c-0.387,0.083-0.774-0.066-1.009-0.378c-1.733-2.311-3.58-2.967-4.645-3.146c-0.081,5.664-1.716,9.521-4.867,11.475
		C24.351,38.997,20.071,38.433,16.939,37.527z"/>
</g>
</svg>