<?xml version="1.0" encoding="iso-8859-1"?>
<!-- Generator: Adobe Illustrator 29.4.0, SVG Export Plug-In . SVG Version: 9.03 Build 0)  -->
<svg version="1.1" baseProfile="basic" id="Layer_1"
	 xmlns="http://www.w3.org/2000/svg" xmlns:xlink="http://www.w3.org/1999/xlink" x="0px" y="0px" viewBox="0 0 50 50"
	 xml:space="preserve">
<path style="fill:none;stroke:#000000;stroke-width:2;stroke-linecap:round;stroke-linejoin:round;stroke-miterlimit:10;" d="
	M37.009,45.977L13.031,46c-4.95,0.005-9.004-4.041-9.009-8.991L4,13.031c-0.005-4.95,4.041-9.004,8.991-9.009L36.969,4
	c4.95-0.005,9.004,4.041,9.009,8.991L46,36.969C46.005,41.919,41.959,45.972,37.009,45.977z"/>
<path style="fill:none;stroke:#000000;stroke-width:2;stroke-linecap:round;stroke-linejoin:round;stroke-miterlimit:10;" d="
	M27.328,12.751l2.056,3.297l3.86-0.448c2.016-0.234,3.58,1.727,2.903,3.64l-1.296,3.663l2.757,2.738
	c1.44,1.431,0.882,3.876-1.036,4.539L32.9,31.452l-0.422,3.863c-0.22,2.018-2.48,3.106-4.195,2.02L25,35.256l-3.283,2.079
	c-1.715,1.086-3.975-0.002-4.195-2.02L17.1,31.452l-3.672-1.271c-1.918-0.664-2.476-3.109-1.036-4.539l2.757-2.738l-1.296-3.663
	c-0.677-1.914,0.887-3.875,2.903-3.64l3.86,0.448l2.056-3.297C23.746,11.028,26.254,11.028,27.328,12.751z"/>
<path style="fill:none;stroke:#000000;stroke-width:2;stroke-linecap:round;stroke-linejoin:round;stroke-miterlimit:10;" d="
	M25,35.256c2.055-2.451,4.699-3.704,7.906-3.808c-0.635-3.338,0.098-6.159,1.953-8.555c-2.831-1.697-4.66-3.98-5.471-6.861
	c-2.925,1.078-5.85,1.078-8.775,0c-1.064,2.887-2.826,5.223-5.471,6.861c1.542,2.253,2.233,5.078,1.953,8.555
	C20.07,31.506,22.701,32.792,25,35.256z"/>
</svg>
